<?xml version="1.0" standalone="no"?>
<!DOCTYPE svg PUBLIC "-//W3C//DTD SVG 1.1//EN" "http://www.w3.org/Graphics/SVG/1.1/DTD/svg11.dtd">
<svg xmlns="http://www.w3.org/2000/svg" xmlns:xlink="http://www.w3.org/1999/xlink" width="240" zoomAndPan="magnify" viewBox="0 0 240 98.999996" height="98.99999237060547" preserveAspectRatio="xMidYMid meet" version="1.0"><defs><g/><clipPath id="62aeb9b23e"><path d="M 2.121094 27.132812 L 64.320312 27.132812 L 64.320312 80.746094 L 2.121094 80.746094 Z M 2.121094 27.132812 " clip-rule="nonzero"/></clipPath><clipPath id="d4ca3d2e34"><path d="M 0 18.347656 L 62 18.347656 L 62 77 L 0 77 Z M 0 18.347656 " clip-rule="nonzero"/></clipPath><clipPath id="ca103da059"><path d="M 23 18.347656 L 60 18.347656 L 60 65 L 23 65 Z M 23 18.347656 " clip-rule="nonzero"/></clipPath></defs><g fill="#ebe6e3" fill-opacity="1"><g transform="translate(64.512038, 53.275996)"><g><path d="M 5.53125 -9.296875 L 5.53125 0 L 2.65625 0 L 2.65625 -19.484375 L 9.015625 -19.484375 C 10.992188 -19.484375 12.613281 -19.039062 13.875 -18.15625 C 15.144531 -17.28125 15.78125 -16.117188 15.78125 -14.671875 C 15.78125 -13.234375 15.273438 -12.097656 14.265625 -11.265625 C 13.253906 -10.429688 11.882812 -9.851562 10.15625 -9.53125 L 18.046875 0 L 14.625 0.40625 L 7.796875 -9.296875 Z M 5.53125 -10.1875 L 7.421875 -10.1875 C 10.953125 -10.1875 12.71875 -11.578125 12.71875 -14.359375 C 12.71875 -14.835938 12.597656 -15.367188 12.359375 -15.953125 C 11.910156 -17.191406 10.953125 -18.007812 9.484375 -18.40625 C 8.148438 -18.40625 6.832031 -18.234375 5.53125 -17.890625 Z M 5.53125 -10.1875 "/></g></g></g><g fill="#ebe6e3" fill-opacity="1"><g transform="translate(87.326458, 53.275996)"><g><path d="M 0.296875 0 L 9.03125 -19.953125 L 9.484375 -19.953125 L 18.21875 0 L 15.015625 0 L 12.8125 -5.296875 L 4.0625 -5.296875 L 1.890625 0 Z M 4.5 -6.421875 L 12.328125 -6.421875 L 8.453125 -15.953125 Z M 4.5 -6.421875 "/></g></g></g><g fill="#ebe6e3" fill-opacity="1"><g transform="translate(109.875938, 53.275996)"><g><path d="M 5.359375 -19.484375 L 5.359375 0 L 2.65625 0 L 2.65625 -19.484375 Z M 5.359375 -19.484375 "/></g></g></g><g fill="#ebe6e3" fill-opacity="1"><g transform="translate(121.91622, 53.275996)"><g><path d="M 17.453125 0.328125 L 16.953125 0.328125 L 4.0625 -15.8125 L 3.9375 -15.8125 L 3.9375 0 L 2.65625 0 L 2.65625 -19.484375 L 4.828125 -19.484375 L 16.046875 -5.328125 L 16.15625 -5.328125 L 16.15625 -19.484375 L 17.453125 -19.484375 Z M 17.453125 0.328125 "/></g></g></g><g fill="#ebe6e3" fill-opacity="1"><g transform="translate(146.055327, 53.275996)"><g><path d="M 5.359375 -19.484375 L 5.359375 0 L 2.65625 0 L 2.65625 -19.484375 Z M 5.359375 -19.484375 "/></g></g></g><g fill="#ebe6e3" fill-opacity="1"><g transform="translate(158.095609, 53.275996)"><g><path d="M 2.65625 0 L 2.65625 -19.484375 L 14.453125 -19.484375 L 14.15625 -17.515625 L 8.6875 -18.421875 C 7.71875 -18.421875 6.65625 -18.253906 5.5 -17.921875 L 5.5 -10.78125 L 12.046875 -10.78125 L 12.046875 -9.65625 L 5.5 -9.65625 L 5.5 -1.0625 L 14.625 -1.96875 L 14.34375 0 Z M 2.65625 0 "/></g></g></g><g fill="#ebe6e3" fill-opacity="1"><g transform="translate(178.672773, 53.275996)"><g><path d="M 5.53125 -9.296875 L 5.53125 0 L 2.65625 0 L 2.65625 -19.484375 L 9.015625 -19.484375 C 10.992188 -19.484375 12.613281 -19.039062 13.875 -18.15625 C 15.144531 -17.28125 15.78125 -16.117188 15.78125 -14.671875 C 15.78125 -13.234375 15.273438 -12.097656 14.265625 -11.265625 C 13.253906 -10.429688 11.882812 -9.851562 10.15625 -9.53125 L 18.046875 0 L 14.625 0.40625 L 7.796875 -9.296875 Z M 5.53125 -10.1875 L 7.421875 -10.1875 C 10.953125 -10.1875 12.71875 -11.578125 12.71875 -14.359375 C 12.71875 -14.835938 12.597656 -15.367188 12.359375 -15.953125 C 11.910156 -17.191406 10.953125 -18.007812 9.484375 -18.40625 C 8.148438 -18.40625 6.832031 -18.234375 5.53125 -17.890625 Z M 5.53125 -10.1875 "/></g></g></g><g fill="#ebe6e3" fill-opacity="1"><g transform="translate(65.121182, 67.983209)"><g><path d="M 0.8125 -5.375 L 3.078125 -5.375 C 3.640625 -5.375 4.140625 -5.257812 4.578125 -5.03125 C 5.023438 -4.8125 5.367188 -4.5 5.609375 -4.09375 C 5.859375 -3.6875 5.984375 -3.21875 5.984375 -2.6875 C 5.984375 -2.164062 5.859375 -1.695312 5.609375 -1.28125 C 5.367188 -0.875 5.023438 -0.554688 4.578125 -0.328125 C 4.140625 -0.109375 3.640625 0 3.078125 0 L 0.8125 0 Z M 3.03125 -0.671875 C 3.46875 -0.671875 3.847656 -0.753906 4.171875 -0.921875 C 4.503906 -1.085938 4.757812 -1.320312 4.9375 -1.625 C 5.125 -1.9375 5.21875 -2.289062 5.21875 -2.6875 C 5.21875 -3.09375 5.125 -3.445312 4.9375 -3.75 C 4.757812 -4.050781 4.503906 -4.285156 4.171875 -4.453125 C 3.847656 -4.628906 3.46875 -4.71875 3.03125 -4.71875 L 1.578125 -4.71875 L 1.578125 -0.671875 Z M 3.03125 -0.671875 "/></g></g></g><g fill="#ebe6e3" fill-opacity="1"><g transform="translate(76.971437, 67.983209)"><g><path d="M 0.8125 -5.375 L 1.578125 -5.375 L 1.578125 0 L 0.8125 0 Z M 0.8125 -5.375 "/></g></g></g><g fill="#ebe6e3" fill-opacity="1"><g transform="translate(84.8588, 67.983209)"><g><path d="M 4.53125 -2.71875 L 5.28125 -2.71875 L 5.28125 -0.625 C 5.007812 -0.40625 4.695312 -0.234375 4.34375 -0.109375 C 3.988281 0.00390625 3.617188 0.0625 3.234375 0.0625 C 2.691406 0.0625 2.203125 -0.0546875 1.765625 -0.296875 C 1.328125 -0.535156 0.984375 -0.863281 0.734375 -1.28125 C 0.492188 -1.695312 0.375 -2.164062 0.375 -2.6875 C 0.375 -3.207031 0.492188 -3.675781 0.734375 -4.09375 C 0.984375 -4.519531 1.328125 -4.847656 1.765625 -5.078125 C 2.203125 -5.316406 2.695312 -5.4375 3.25 -5.4375 C 3.675781 -5.4375 4.066406 -5.363281 4.421875 -5.21875 C 4.773438 -5.082031 5.070312 -4.878906 5.3125 -4.609375 L 4.84375 -4.140625 C 4.414062 -4.554688 3.894531 -4.765625 3.28125 -4.765625 C 2.875 -4.765625 2.503906 -4.675781 2.171875 -4.5 C 1.847656 -4.320312 1.59375 -4.070312 1.40625 -3.75 C 1.226562 -3.4375 1.140625 -3.082031 1.140625 -2.6875 C 1.140625 -2.300781 1.226562 -1.945312 1.40625 -1.625 C 1.59375 -1.3125 1.847656 -1.066406 2.171875 -0.890625 C 2.503906 -0.710938 2.875 -0.625 3.28125 -0.625 C 3.757812 -0.625 4.175781 -0.738281 4.53125 -0.96875 Z M 4.53125 -2.71875 "/></g></g></g><g fill="#ebe6e3" fill-opacity="1"><g transform="translate(96.294329, 67.983209)"><g><path d="M 0.8125 -5.375 L 1.578125 -5.375 L 1.578125 0 L 0.8125 0 Z M 0.8125 -5.375 "/></g></g></g><g fill="#ebe6e3" fill-opacity="1"><g transform="translate(104.181691, 67.983209)"><g><path d="M 1.875 -4.71875 L 0.03125 -4.71875 L 0.03125 -5.375 L 4.484375 -5.375 L 4.484375 -4.71875 L 2.640625 -4.71875 L 2.640625 0 L 1.875 0 Z M 1.875 -4.71875 "/></g></g></g><g fill="#ebe6e3" fill-opacity="1"><g transform="translate(114.196417, 67.983209)"><g><path d="M 4.234375 -1.34375 L 1.375 -1.34375 L 0.78125 0 L 0 0 L 2.421875 -5.375 L 3.1875 -5.375 L 5.640625 0 L 4.828125 0 Z M 3.96875 -1.953125 L 2.8125 -4.59375 L 1.640625 -1.953125 Z M 3.96875 -1.953125 "/></g></g></g><g fill="#ebe6e3" fill-opacity="1"><g transform="translate(125.324746, 67.983209)"><g><path d="M 0.8125 -5.375 L 1.578125 -5.375 L 1.578125 -0.671875 L 4.484375 -0.671875 L 4.484375 0 L 0.8125 0 Z M 0.8125 -5.375 "/></g></g></g><g fill="#ebe6e3" fill-opacity="1"><g transform="translate(135.393232, 67.983209)"><g/></g></g><g fill="#ebe6e3" fill-opacity="1"><g transform="translate(142.965719, 67.983209)"><g><path d="M 2.375 0.0625 C 1.96875 0.0625 1.578125 0 1.203125 -0.125 C 0.828125 -0.25 0.53125 -0.410156 0.3125 -0.609375 L 0.59375 -1.21875 C 0.800781 -1.03125 1.066406 -0.878906 1.390625 -0.765625 C 1.710938 -0.648438 2.039062 -0.59375 2.375 -0.59375 C 2.820312 -0.59375 3.15625 -0.664062 3.375 -0.8125 C 3.59375 -0.96875 3.703125 -1.171875 3.703125 -1.421875 C 3.703125 -1.609375 3.640625 -1.757812 3.515625 -1.875 C 3.398438 -1.988281 3.253906 -2.078125 3.078125 -2.140625 C 2.898438 -2.203125 2.648438 -2.269531 2.328125 -2.34375 C 1.921875 -2.4375 1.59375 -2.53125 1.34375 -2.625 C 1.09375 -2.726562 0.878906 -2.878906 0.703125 -3.078125 C 0.535156 -3.285156 0.453125 -3.5625 0.453125 -3.90625 C 0.453125 -4.1875 0.523438 -4.441406 0.671875 -4.671875 C 0.828125 -4.910156 1.054688 -5.097656 1.359375 -5.234375 C 1.671875 -5.367188 2.050781 -5.4375 2.5 -5.4375 C 2.820312 -5.4375 3.132812 -5.394531 3.4375 -5.3125 C 3.75 -5.238281 4.015625 -5.125 4.234375 -4.96875 L 3.984375 -4.34375 C 3.753906 -4.488281 3.507812 -4.597656 3.25 -4.671875 C 3 -4.753906 2.75 -4.796875 2.5 -4.796875 C 2.070312 -4.796875 1.75 -4.710938 1.53125 -4.546875 C 1.3125 -4.390625 1.203125 -4.1875 1.203125 -3.9375 C 1.203125 -3.75 1.257812 -3.597656 1.375 -3.484375 C 1.5 -3.367188 1.648438 -3.28125 1.828125 -3.21875 C 2.015625 -3.15625 2.265625 -3.085938 2.578125 -3.015625 C 2.984375 -2.921875 3.304688 -2.820312 3.546875 -2.71875 C 3.796875 -2.625 4.007812 -2.472656 4.1875 -2.265625 C 4.363281 -2.066406 4.453125 -1.800781 4.453125 -1.46875 C 4.453125 -1.1875 4.375 -0.925781 4.21875 -0.6875 C 4.070312 -0.457031 3.84375 -0.273438 3.53125 -0.140625 C 3.21875 -0.00390625 2.832031 0.0625 2.375 0.0625 Z M 2.375 0.0625 "/></g></g></g><g fill="#ebe6e3" fill-opacity="1"><g transform="translate(153.241568, 67.983209)"><g><path d="M 3.234375 0.0625 C 2.691406 0.0625 2.203125 -0.0546875 1.765625 -0.296875 C 1.328125 -0.535156 0.984375 -0.863281 0.734375 -1.28125 C 0.492188 -1.707031 0.375 -2.175781 0.375 -2.6875 C 0.375 -3.207031 0.492188 -3.675781 0.734375 -4.09375 C 0.984375 -4.519531 1.328125 -4.847656 1.765625 -5.078125 C 2.203125 -5.316406 2.691406 -5.4375 3.234375 -5.4375 C 3.773438 -5.4375 4.257812 -5.316406 4.6875 -5.078125 C 5.125 -4.847656 5.46875 -4.519531 5.71875 -4.09375 C 5.96875 -3.675781 6.09375 -3.207031 6.09375 -2.6875 C 6.09375 -2.164062 5.96875 -1.695312 5.71875 -1.28125 C 5.46875 -0.863281 5.125 -0.535156 4.6875 -0.296875 C 4.257812 -0.0546875 3.773438 0.0625 3.234375 0.0625 Z M 3.234375 -0.625 C 3.628906 -0.625 3.984375 -0.710938 4.296875 -0.890625 C 4.617188 -1.066406 4.867188 -1.3125 5.046875 -1.625 C 5.222656 -1.945312 5.3125 -2.300781 5.3125 -2.6875 C 5.3125 -3.082031 5.222656 -3.4375 5.046875 -3.75 C 4.867188 -4.0625 4.617188 -4.304688 4.296875 -4.484375 C 3.984375 -4.671875 3.628906 -4.765625 3.234375 -4.765625 C 2.835938 -4.765625 2.476562 -4.671875 2.15625 -4.484375 C 1.84375 -4.304688 1.59375 -4.0625 1.40625 -3.75 C 1.226562 -3.4375 1.140625 -3.082031 1.140625 -2.6875 C 1.140625 -2.300781 1.226562 -1.945312 1.40625 -1.625 C 1.59375 -1.3125 1.84375 -1.066406 2.15625 -0.890625 C 2.476562 -0.710938 2.835938 -0.625 3.234375 -0.625 Z M 3.234375 -0.625 "/></g></g></g><g fill="#ebe6e3" fill-opacity="1"><g transform="translate(165.199342, 67.983209)"><g><path d="M 0.8125 -5.375 L 1.578125 -5.375 L 1.578125 -0.671875 L 4.484375 -0.671875 L 4.484375 0 L 0.8125 0 Z M 0.8125 -5.375 "/></g></g></g><g fill="#ebe6e3" fill-opacity="1"><g transform="translate(175.267828, 67.983209)"><g><path d="M 3.03125 0.0625 C 2.3125 0.0625 1.753906 -0.140625 1.359375 -0.546875 C 0.960938 -0.960938 0.765625 -1.554688 0.765625 -2.328125 L 0.765625 -5.375 L 1.53125 -5.375 L 1.53125 -2.359375 C 1.53125 -1.203125 2.035156 -0.625 3.046875 -0.625 C 3.535156 -0.625 3.910156 -0.765625 4.171875 -1.046875 C 4.429688 -1.328125 4.5625 -1.765625 4.5625 -2.359375 L 4.5625 -5.375 L 5.3125 -5.375 L 5.3125 -2.328125 C 5.3125 -1.546875 5.109375 -0.953125 4.703125 -0.546875 C 4.304688 -0.140625 3.75 0.0625 3.03125 0.0625 Z M 3.03125 0.0625 "/></g></g></g><g fill="#ebe6e3" fill-opacity="1"><g transform="translate(186.849277, 67.983209)"><g><path d="M 1.875 -4.71875 L 0.03125 -4.71875 L 0.03125 -5.375 L 4.484375 -5.375 L 4.484375 -4.71875 L 2.640625 -4.71875 L 2.640625 0 L 1.875 0 Z M 1.875 -4.71875 "/></g></g></g><g fill="#ebe6e3" fill-opacity="1"><g transform="translate(196.864003, 67.983209)"><g><path d="M 0.8125 -5.375 L 1.578125 -5.375 L 1.578125 0 L 0.8125 0 Z M 0.8125 -5.375 "/></g></g></g><g fill="#ebe6e3" fill-opacity="1"><g transform="translate(204.751365, 67.983209)"><g><path d="M 3.234375 0.0625 C 2.691406 0.0625 2.203125 -0.0546875 1.765625 -0.296875 C 1.328125 -0.535156 0.984375 -0.863281 0.734375 -1.28125 C 0.492188 -1.707031 0.375 -2.175781 0.375 -2.6875 C 0.375 -3.207031 0.492188 -3.675781 0.734375 -4.09375 C 0.984375 -4.519531 1.328125 -4.847656 1.765625 -5.078125 C 2.203125 -5.316406 2.691406 -5.4375 3.234375 -5.4375 C 3.773438 -5.4375 4.257812 -5.316406 4.6875 -5.078125 C 5.125 -4.847656 5.46875 -4.519531 5.71875 -4.09375 C 5.96875 -3.675781 6.09375 -3.207031 6.09375 -2.6875 C 6.09375 -2.164062 5.96875 -1.695312 5.71875 -1.28125 C 5.46875 -0.863281 5.125 -0.535156 4.6875 -0.296875 C 4.257812 -0.0546875 3.773438 0.0625 3.234375 0.0625 Z M 3.234375 -0.625 C 3.628906 -0.625 3.984375 -0.710938 4.296875 -0.890625 C 4.617188 -1.066406 4.867188 -1.3125 5.046875 -1.625 C 5.222656 -1.945312 5.3125 -2.300781 5.3125 -2.6875 C 5.3125 -3.082031 5.222656 -3.4375 5.046875 -3.75 C 4.867188 -4.0625 4.617188 -4.304688 4.296875 -4.484375 C 3.984375 -4.671875 3.628906 -4.765625 3.234375 -4.765625 C 2.835938 -4.765625 2.476562 -4.671875 2.15625 -4.484375 C 1.84375 -4.304688 1.59375 -4.0625 1.40625 -3.75 C 1.226562 -3.4375 1.140625 -3.082031 1.140625 -2.6875 C 1.140625 -2.300781 1.226562 -1.945312 1.40625 -1.625 C 1.59375 -1.3125 1.84375 -1.066406 2.15625 -0.890625 C 2.476562 -0.710938 2.835938 -0.625 3.234375 -0.625 Z M 3.234375 -0.625 "/></g></g></g><g fill="#ebe6e3" fill-opacity="1"><g transform="translate(216.709148, 67.983209)"><g><path d="M 5.4375 -5.375 L 5.4375 0 L 4.8125 0 L 1.578125 -4.015625 L 1.578125 0 L 0.8125 0 L 0.8125 -5.375 L 1.4375 -5.375 L 4.671875 -1.375 L 4.671875 -5.375 Z M 5.4375 -5.375 "/></g></g></g><g fill="#ebe6e3" fill-opacity="1"><g transform="translate(228.451876, 67.983209)"><g><path d="M 2.375 0.0625 C 1.96875 0.0625 1.578125 0 1.203125 -0.125 C 0.828125 -0.25 0.53125 -0.410156 0.3125 -0.609375 L 0.59375 -1.21875 C 0.800781 -1.03125 1.066406 -0.878906 1.390625 -0.765625 C 1.710938 -0.648438 2.039062 -0.59375 2.375 -0.59375 C 2.820312 -0.59375 3.15625 -0.664062 3.375 -0.8125 C 3.59375 -0.96875 3.703125 -1.171875 3.703125 -1.421875 C 3.703125 -1.609375 3.640625 -1.757812 3.515625 -1.875 C 3.398438 -1.988281 3.253906 -2.078125 3.078125 -2.140625 C 2.898438 -2.203125 2.648438 -2.269531 2.328125 -2.34375 C 1.921875 -2.4375 1.59375 -2.53125 1.34375 -2.625 C 1.09375 -2.726562 0.878906 -2.878906 0.703125 -3.078125 C 0.535156 -3.285156 0.453125 -3.5625 0.453125 -3.90625 C 0.453125 -4.1875 0.523438 -4.441406 0.671875 -4.671875 C 0.828125 -4.910156 1.054688 -5.097656 1.359375 -5.234375 C 1.671875 -5.367188 2.050781 -5.4375 2.5 -5.4375 C 2.820312 -5.4375 3.132812 -5.394531 3.4375 -5.3125 C 3.75 -5.238281 4.015625 -5.125 4.234375 -4.96875 L 3.984375 -4.34375 C 3.753906 -4.488281 3.507812 -4.597656 3.25 -4.671875 C 3 -4.753906 2.75 -4.796875 2.5 -4.796875 C 2.070312 -4.796875 1.75 -4.710938 1.53125 -4.546875 C 1.3125 -4.390625 1.203125 -4.1875 1.203125 -3.9375 C 1.203125 -3.75 1.257812 -3.597656 1.375 -3.484375 C 1.5 -3.367188 1.648438 -3.28125 1.828125 -3.21875 C 2.015625 -3.15625 2.265625 -3.085938 2.578125 -3.015625 C 2.984375 -2.921875 3.304688 -2.820312 3.546875 -2.71875 C 3.796875 -2.625 4.007812 -2.472656 4.1875 -2.265625 C 4.363281 -2.066406 4.453125 -1.800781 4.453125 -1.46875 C 4.453125 -1.1875 4.375 -0.925781 4.21875 -0.6875 C 4.070312 -0.457031 3.84375 -0.273438 3.53125 -0.140625 C 3.21875 -0.00390625 2.832031 0.0625 2.375 0.0625 Z M 2.375 0.0625 "/></g></g></g><g clip-path="url(#62aeb9b23e)"><path fill="#605e5c" d="M 9.484375 68.007812 L 32.957031 27.183594 L 33.523438 27.183594 L 64.320312 80.742188 C 43.601562 80.742188 22.878906 80.75 2.160156 80.742188 L 7.136719 72.085938 L 7.703125 72.417969 L 3.289062 80.089844 L 63.191406 80.089844 L 33.238281 28.003906 L 10.050781 68.332031 L 9.484375 68.007812 " fill-opacity="1" fill-rule="nonzero"/></g><g clip-path="url(#d4ca3d2e34)"><path fill="#605e5c" d="M 24.226562 35.511719 L 28.546875 43.019531 L 32.863281 35.511719 L 28.546875 28.003906 Z M 19.722656 27.675781 L 23.851562 34.859375 L 27.980469 27.675781 Z M 23.472656 35.511719 L 19.15625 28.003906 L 10.332031 43.347656 L 18.96875 43.347656 Z M 27.980469 43.347656 L 23.851562 36.167969 L 19.722656 43.347656 Z M 9.765625 75.679688 L 13.894531 68.496094 L 5.636719 68.496094 Z M 10.332031 76.003906 L 56.148438 76.003906 L 33.242188 36.167969 C 25.605469 49.449219 17.96875 62.726562 10.332031 76.003906 Z M 5.636719 67.839844 L 14.273438 67.839844 L 27.980469 44.003906 L 19.34375 44.003906 Z M 37.371094 27.019531 L 33.238281 19.839844 L 29.109375 27.019531 Z M 0 60.003906 L 9.199219 44.003906 C 12.457031 38.34375 15.710938 32.679688 18.96875 27.019531 C 22.097656 27.019531 25.226562 27.019531 28.355469 27.019531 L 33.242188 18.527344 L 38.5 27.675781 L 29.109375 27.675781 C 30.550781 30.179688 31.988281 32.683594 33.429688 35.183594 L 52.585938 35.183594 L 43.003906 51.839844 C 47.761719 60.117188 52.519531 68.390625 57.277344 76.664062 L 9.578125 76.664062 L 4.695312 68.167969 L 18.589844 44.003906 L 9.953125 44.003906 L 0.375 60.660156 Z M 61.972656 52.167969 L 56.902344 52.167969 L 54.367188 56.578125 L 51.640625 51.839844 L 56.714844 43.023438 Z M 56.148438 52.167969 L 52.585938 52.167969 L 54.367188 55.265625 Z M 52.582031 51.511719 C 55.335938 51.511719 58.089844 51.511719 60.84375 51.511719 L 56.714844 44.332031 Z M 42.628906 51.1875 L 51.453125 35.839844 L 33.804688 35.839844 L 42.628906 51.1875 " fill-opacity="1" fill-rule="nonzero"/></g><g clip-path="url(#ca103da059)"><path fill="#605e5c" d="M 47.324219 28.183594 C 47.78125 28.183594 48.15625 27.808594 48.15625 27.347656 C 48.15625 26.886719 47.78125 26.511719 47.324219 26.511719 C 46.863281 26.511719 46.492188 26.886719 46.492188 27.347656 C 46.492188 27.808594 46.863281 28.183594 47.324219 28.183594 Z M 23.851562 20.019531 C 24.308594 20.019531 24.683594 19.644531 24.683594 19.183594 C 24.683594 18.722656 24.308594 18.347656 23.851562 18.347656 C 23.390625 18.347656 23.019531 18.722656 23.019531 19.183594 C 23.019531 19.644531 23.390625 20.019531 23.851562 20.019531 Z M 59.0625 64.921875 C 59.519531 64.921875 59.890625 64.546875 59.890625 64.085938 C 59.890625 63.625 59.519531 63.253906 59.0625 63.253906 C 58.601562 63.253906 58.230469 63.625 58.230469 64.085938 C 58.230469 64.546875 58.601562 64.921875 59.0625 64.921875 " fill-opacity="1" fill-rule="evenodd"/></g></svg>