<?xml version="1.0" standalone="no"?>
<!DOCTYPE svg PUBLIC "-//W3C//DTD SVG 1.1//EN" "http://www.w3.org/Graphics/SVG/1.1/DTD/svg11.dtd">
<svg xmlns="http://www.w3.org/2000/svg" xmlns:xlink="http://www.w3.org/1999/xlink" width="375" zoomAndPan="magnify" viewBox="0 0 375 374.999991" height="375" preserveAspectRatio="xMidYMid meet" version="1.0"><defs><g/><clipPath id="34a6698d25"><path d="M 12.375 57.324219 L 375 57.324219 L 375 368.574219 L 12.375 368.574219 Z M 12.375 57.324219 " clip-rule="nonzero"/></clipPath><clipPath id="aaad413463"><path d="M 134 6.328125 L 350 6.328125 L 350 277 L 134 277 Z M 134 6.328125 " clip-rule="nonzero"/></clipPath></defs><g clip-path="url(#34a6698d25)"><path fill="#605e5c" d="M 55.289062 294.617188 L 192.148438 57.632812 L 195.445312 57.632812 L 375 368.5625 C 254.195312 368.5625 133.386719 368.59375 12.582031 368.558594 L 41.601562 318.308594 L 44.902344 320.21875 L 19.179688 364.757812 L 368.414062 364.757812 L 193.796875 62.382812 L 58.589844 296.511719 L 55.289062 294.617188 " fill-opacity="1" fill-rule="nonzero"/></g><path fill="#605e5c" d="M 141.25 105.976562 L 166.421875 149.566406 L 191.597656 105.976562 L 166.425781 62.382812 Z M 114.976562 60.480469 L 139.054688 102.175781 L 163.132812 60.480469 Z M 136.859375 105.976562 L 111.683594 62.382812 L 60.238281 151.464844 L 110.589844 151.464844 Z M 163.128906 151.464844 L 139.054688 109.777344 L 114.980469 151.464844 Z M 56.9375 339.160156 L 81.015625 297.464844 L 32.859375 297.464844 Z M 60.234375 341.050781 L 327.351562 341.050781 L 193.796875 109.785156 C 149.273438 186.875 104.753906 263.964844 60.234375 341.050781 Z M 32.863281 293.664062 L 83.207031 293.660156 L 163.125 155.28125 L 112.78125 155.28125 Z M 217.875 56.679688 L 193.796875 14.988281 L 169.714844 56.679688 Z M 0 248.171875 L 53.644531 155.28125 C 72.621094 122.414062 91.589844 89.539062 110.585938 56.679688 C 128.835938 56.679688 147.082031 56.667969 165.328125 56.679688 L 193.796875 7.382812 L 224.460938 60.484375 L 169.714844 60.480469 C 178.105469 75.011719 186.5 89.546875 194.890625 104.070312 L 306.578125 104.070312 L 250.726562 200.777344 C 278.464844 248.808594 306.199219 296.84375 333.949219 344.871094 L 55.84375 344.871094 L 27.371094 295.558594 L 108.382812 155.28125 L 58.035156 155.28125 L 2.195312 251.972656 Z M 361.316406 202.671875 L 331.753906 202.671875 L 316.96875 228.277344 L 301.082031 200.773438 L 330.652344 149.574219 Z M 327.351562 202.679688 L 306.582031 202.679688 L 316.96875 220.660156 Z M 306.574219 198.863281 C 322.632812 198.863281 338.675781 198.871094 354.730469 198.871094 L 330.652344 157.175781 Z M 248.535156 196.976562 L 299.984375 107.886719 L 197.09375 107.886719 L 248.535156 196.976562 " fill-opacity="1" fill-rule="nonzero"/><g clip-path="url(#aaad413463)"><path fill="#605e5c" d="M 275.910156 63.429688 C 278.585938 63.429688 280.757812 61.257812 280.757812 58.582031 C 280.757812 55.90625 278.585938 53.734375 275.910156 53.734375 C 273.234375 53.734375 271.058594 55.90625 271.058594 58.582031 C 271.058594 61.257812 273.234375 63.429688 275.910156 63.429688 Z M 139.054688 16.03125 C 141.730469 16.03125 143.902344 13.859375 143.902344 11.183594 C 143.902344 8.507812 141.730469 6.335938 139.054688 6.335938 C 136.375 6.335938 134.207031 8.507812 134.207031 11.183594 C 134.207031 13.859375 136.375 16.03125 139.054688 16.03125 Z M 344.335938 276.710938 C 347.015625 276.710938 349.183594 274.542969 349.183594 271.867188 C 349.183594 269.1875 347.015625 267.019531 344.335938 267.019531 C 341.660156 267.019531 339.488281 269.1875 339.488281 271.867188 C 339.488281 274.542969 341.660156 276.710938 344.335938 276.710938 " fill-opacity="1" fill-rule="evenodd"/></g><g fill="#ebe6e3" fill-opacity="1"><g transform="translate(125.120951, 278.723002)"><g><path d="M 11.9375 -20.0625 L 11.9375 0 L 5.71875 0 L 5.71875 -42.03125 L 19.4375 -42.03125 C 23.707031 -42.03125 27.207031 -41.078125 29.9375 -39.171875 C 32.664062 -37.273438 34.03125 -34.769531 34.03125 -31.65625 C 34.03125 -28.539062 32.941406 -26.082031 30.765625 -24.28125 C 28.585938 -22.488281 25.632812 -21.253906 21.90625 -20.578125 L 38.921875 0 L 31.5625 0.890625 L 16.828125 -20.0625 Z M 11.9375 -21.96875 L 16 -21.96875 C 23.625 -21.96875 27.4375 -24.972656 27.4375 -30.984375 C 27.4375 -32.003906 27.179688 -33.148438 26.671875 -34.421875 C 25.691406 -37.085938 23.617188 -38.84375 20.453125 -39.6875 C 17.566406 -39.6875 14.726562 -39.328125 11.9375 -38.609375 Z M 11.9375 -21.96875 "/></g></g></g><g fill="#ebe6e3" fill-opacity="1"><g transform="translate(174.33473, 278.723002)"><g><path d="M 5.71875 0 L 5.71875 -42.03125 L 17.71875 -42.03125 C 22.707031 -42.03125 27.210938 -40.972656 31.234375 -38.859375 C 33.398438 -37.765625 35.285156 -36.390625 36.890625 -34.734375 C 38.503906 -33.085938 39.796875 -30.984375 40.765625 -28.421875 C 41.742188 -25.859375 42.234375 -23.007812 42.234375 -19.875 C 42.234375 -15.382812 41.109375 -11.597656 38.859375 -8.515625 C 34.753906 -2.835938 28.109375 0 18.921875 0 Z M 17.65625 -2.15625 C 23.03125 -2.15625 27.347656 -3.742188 30.609375 -6.921875 C 33.867188 -10.097656 35.5 -14.753906 35.5 -20.890625 C 35.5 -25.628906 34.207031 -29.679688 31.625 -33.046875 C 29.039062 -36.410156 25.695312 -38.644531 21.59375 -39.75 C 17.90625 -39.75 14.6875 -39.304688 11.9375 -38.421875 L 11.9375 -2.734375 C 13.289062 -2.347656 15.195312 -2.15625 17.65625 -2.15625 Z M 17.65625 -2.15625 "/></g></g></g><g fill="#ebe6e3" fill-opacity="1"><g transform="translate(227.993553, 278.723002)"><g><path d="M 10.28125 -34.734375 C 10.28125 -32.867188 11.007812 -31.140625 12.46875 -29.546875 C 13.9375 -27.960938 15.71875 -26.566406 17.8125 -25.359375 C 19.90625 -24.160156 21.988281 -22.9375 24.0625 -21.6875 C 26.132812 -20.4375 27.898438 -18.898438 29.359375 -17.078125 C 30.828125 -15.253906 31.5625 -13.242188 31.5625 -11.046875 C 31.5625 -7.578125 30.28125 -4.738281 27.71875 -2.53125 C 25.15625 -0.332031 21.691406 0.765625 17.328125 0.765625 C 12.972656 0.765625 8.65625 -0.0625 4.375 -1.71875 L 4.375 -4.703125 C 8.695312 -2.535156 12.367188 -1.453125 15.390625 -1.453125 C 18.421875 -1.453125 20.78125 -2.191406 22.46875 -3.671875 C 24.164062 -5.160156 25.015625 -7.21875 25.015625 -9.84375 C 25.015625 -11.625 24.316406 -13.242188 22.921875 -14.703125 C 21.523438 -16.160156 19.832031 -17.425781 17.84375 -18.5 C 15.851562 -19.582031 13.863281 -20.695312 11.875 -21.84375 C 9.882812 -22.988281 8.191406 -24.4375 6.796875 -26.1875 C 5.398438 -27.945312 4.703125 -30.078125 4.703125 -32.578125 C 4.703125 -35.078125 5.8125 -37.40625 8.03125 -39.5625 C 10.25 -41.71875 13.5625 -42.796875 17.96875 -42.796875 C 20.84375 -42.796875 24.484375 -42.140625 28.890625 -40.828125 L 28.25 -36.515625 C 22.539062 -38.972656 17.65625 -40.203125 13.59375 -40.203125 C 11.382812 -39.140625 10.28125 -37.316406 10.28125 -34.734375 Z M 10.28125 -34.734375 "/></g></g></g></svg>